# AST/ASF file generated using VICON BodyLanguage
# -----------------------------------------------
:version 1.10
:name VICON
:units
  mass 1.0
  length 0.45
  angle deg
:documentation
   .ast/.asf automatically generated from VICON data using
   VICON BodyBuilder and BodyLanguage model FoxedUp or BRILLIANT.MOD
:root
   order TX TY TZ RX RY RZ
   axis XYZ
   position 0 0 0  
   orientation 0 0 0 
:bonedata
  begin
     id 1 
     name lhipjoint
     direction 0.521452 -0.77106 0.36545 
     length 2.0933 
     axis 0 0 0  XYZ
  end
  begin
     id 2 
     name lfemur
     direction 0.34202 -0.939693 0  
     length 6.83441  
     axis 0 0 20  XYZ
    dof rx ry rz
    limits (-160.0 20.0)
           (-70.0 70.0)
           (-60.0 70.0)
  end
  begin
     id 3 
     name ltibia
     direction 0.34202 -0.939693 0   
     length 7.28749   
     axis 0 0 20   XYZ
    dof rx
    limits (-10.0 170.0)
  end
  begin
     id 4 
     name lfoot
     direction 0.100608 -0.276418 0.955757   
     length 1.52195   
     axis -90 7.62852e-016 20   XYZ
    dof rx rz
    limits (-45.0 90.0)
           (-70.0 20.0)
  end
  begin
     id 5 
     name ltoes
     direction 1.53558e-011 -4.21907e-011 1   
     length 0.770459   
     axis -90 7.62852e-016 20   XYZ
    dof rx
    limits (-90.0 20.0)
  end
  begin
     id 6 
     name rhipjoint
     direction -0.488071 -0.788702 0.373812   
     length 2.04648  
     axis 0 0 0  XYZ 
  end
  begin
     id 7 
     name rfemur
     direction -0.34202 -0.939693 0   
     length 6.92583   
     axis 0 0 -20   XYZ
    dof rx ry rz
    limits (-160.0 20.0)
           (-70.0 70.0)
           (-70.0 60.0)
  end
  begin
     id 8 
     name rtibia
     direction -0.34202 -0.939693 0   
     length 7.41043   
     axis 0 0 -20   XYZ
    dof rx
    limits (-10.0 170.0)
 end
 begin
     id 9 
     name rfoot
     direction -0.0784433 -0.215521 0.973343   
     length 1.67708  
     axis -90 -7.62852e-016 -20   XYZ
    dof rx rz
    limits (-45.0 90.0)
           (-20.0 70.0)
  end
  begin
     id 10 
     name rtoes
     direction -1.53551e-011 -4.21842e-011 1   
     length 0.849787   
     axis -90 -7.62852e-016 -20   XYZ
    dof rx
    limits (-90.0 20.0)
  end
  begin
     id 11 
     name lowerback
     direction -0.0122332 0.997575 -0.0685192   
     length 1.98724   
     axis 0 0 0   XYZ
    dof rx ry rz
    limits (-20.0 45.0)
           (-30.0 30.0)
           (-30.0 30.0)
  end
  begin
     id 12 
     name upperback
     direction 0.0182347 0.999724 -0.0148421   
     length 1.99029   
     axis 0 0 0   XYZ
    dof rx ry rz
    limits (-20.0 45.0)
           (-30.0 30.0)
           (-30.0 30.0)
  end
  begin
     id 13 
     name thorax
     direction 0.0242908 0.99956 0.0170184   
     length 1.99573   
     axis 0 0 0   XYZ
    dof rx ry rz
    limits (-20.0 45.0)
           (-30.0 30.0)
           (-30.0 30.0)
  end
  begin
     id 14 
     name lowerneck
     direction 0.0654488 0.985533 0.156338   
     length 1.4285   
     axis 0 0 0   XYZ
    dof rx ry rz
    limits (-20.0 45.0)
           (-30.0 30.0)
           (-30.0 30.0)
  end
  begin
     id 15 
     name upperneck
     direction -0.02953 0.998556 -0.0448842   
     length 1.44709   
     axis 0 0 0   XYZ
    dof rx ry rz
    limits (-20.0 45.0)
           (-30.0 30.0)
           (-30.0 30.0)
  end
  begin
     id 16
     name head
     direction -0.0155588 0.999386 -0.0314063  
     length 1.44689  
     axis 0 0 0   XYZ
    dof rx ry rz
    limits (-20.0 45.0)
           (-30.0 30.0)
           (-30.0 30.0)
  end
  begin
     id 17 
     name lclavicle
     direction 0.968229 0.236071 -0.0824755  
     length 3.60593  
     axis 0 0 0   XYZ
    dof ry rz
    limits (-20.0 10.0)
           (0.0 20.0)
  end
  begin
     id 18 
     name lhumerus
     direction 1 -4.48968e-011 7.8138e-029   
     length 5.06035   
     axis 180 -30 -90   XYZ
    dof rx ry rz
    limits (-60.0 90.0)
           (-90.0 90.0)
           (-90.0 90.0)
  end
  begin
     id 19
     name lradius
     direction 1 -4.48967e-011 9.02887e-028   
     length 3.1478   
     axis 180 -30 -90   XYZ
    dof rx
    limits (-10.0 170.0)
  end
  begin
     id 20
     name lwrist
     direction 1 -4.48961e-011 7.20928e-028   
     length 1.5739   
     axis -5.52449e-016 90 90   XYZ
    dof ry
    limits (-180.0 0.0)
 end
  begin
     id 21 
     name lhand
     direction 1 -4.48972e-011 1.44186e-027   
     length 0.606747   
     axis -9.20027e-016 90 90   XYZ
    dof rx rz
    limits (-90.0 90.0)
           (-45.0 45.0)
  end
  begin
     id 22 
     name lfingers
     direction 1 -4.48943e-011 2.88371e-027   
     length 0.489175   
     axis -1.84005e-015 90 90   XYZ
    dof rx
    limits (0.0 90.0)
  end
  begin
     id 23
     name lthumb
     direction 0.707107 -6.34917e-011 0.707107   
     length 0.70236   
     axis -90 45 2.85299e-015   XYZ
    dof rx rz
    limits (-45.0 45.0)
           (-45.0 45.0)
  end
  begin
     id 24 
     name rclavicle
     direction -0.978165 0.207816 0.0022268   
     length 3.35425  
     axis 0 0 0   XYZ 
    dof ry rz
    limits (-10.0 20.0)
           (-20.0 0.0)
  end
  begin
     id 25 
     name rhumerus
     direction -1 -4.48964e-011 -4.02159e-027  
     length 5.12273   
     axis 180 30 90   XYZ
    dof rx ry rz
    limits (-90.0 60.0)
           (-90.0 90.0)
           (-90.0 90.0)
  end
  begin
     id 26 
     name rradius
     direction -1 -4.48966e-011 1.62746e-027   
     length 3.422   
     axis 180 30 90   XYZ
    dof rx
    limits (-10.0 170.0)
  end
  begin
     id 27 
     name rwrist
     direction -1 -4.4896e-011 7.20928e-028   
     length 1.711   
     axis -5.52449e-016 -90 -90   XYZ
    dof ry
    limits (-180.0 0.0)
  end
  begin
     id 28
     name rhand
     direction -1 -4.48979e-011 1.44186e-027   
     length 0.704599   
     axis -9.20027e-016 -90 -90   XYZ
    dof rx rz
    limits (-90.0 90.0)
           (-45.0 45.0)
  end
  begin
     id 29
     name rfingers
     direction -1 -4.48962e-011 2.88371e-027   
     length 0.568066   
     axis -1.84005e-015 -90 -90   XYZ
    dof rx
    limits (0.0 90.0)
  end
  begin
     id 30
     name rthumb
     direction -0.707107 -6.34949e-011 0.707107   
     length 0.815633   
     axis -90 -45 -2.85299e-015   XYZ
    dof rx rz
    limits (-45.0 45.0)
           (-45.0 45.0)
  end
:hierarchy
  begin
    root lhipjoint rhipjoint lowerback
    lhipjoint lfemur
    lfemur ltibia
    ltibia lfoot
    lfoot ltoes
    rhipjoint rfemur
    rfemur rtibia
    rtibia rfoot
    rfoot rtoes
    lowerback upperback
    upperback thorax
    thorax lowerneck lclavicle rclavicle
    lowerneck upperneck
    upperneck head
    lclavicle lhumerus
    lhumerus lradius
    lradius lwrist
    lwrist lhand lthumb
    lhand lfingers
    rclavicle rhumerus
    rhumerus rradius
    rradius rwrist
    rwrist rhand rthumb
    rhand rfingers
  end

#!OML:ASF E:\id_vita\Project 1\Capture day 1\Session 1\Male1.ASF
:FULLY-SPECIFIED
:DEGREES
398
root 32.2536 13.7804 0.299844 50.0388 79.287 25.5845
lowerback 49.3588 0.47114 2.46105
upperback 10.578 4.10124 4.87077
thorax -8.90282 2.28968 2.26534
lowerneck -21.6447 0.320964 1.92664
upperneck 13.4713 0.451838 -3.18895
head 7.69765 -0.00769729 -1.31837
rclavicle -7.4743e-014 -1.19271e-014
rhumerus -171.729 -173.143 -250.647
rradius 72.8086
rwrist -375.424
rhand -45.8942 87.0546
rfingers 7.12502
rthumb -18.644 -302.072
lclavicle -7.4743e-014 -1.19271e-014
lhumerus -60.8317 54.7053 -39.0598
lradius 17.3406
lwrist -24.703
lhand -12.3305 53.7393
lfingers 7.12502
lthumb 13.7385 83.2658
rfemur -53.8683 -1.16271 13.7962
rtibia 86.0206
rfoot -32.5681 -4.94254
rtoes 25.5813
lfemur -105.918 -2.34294 -32.4137
ltibia 96.2548
lfoot -15.0454 -7.54123
ltoes 34.605
399
root 32.3263 13.7491 0.300287 49.0553 79.336 24.7076
lowerback 50.1195 0.239944 2.63378
upperback 10.4017 3.87211 4.28784
thorax -9.13533 2.20037 1.65205
lowerneck -21.453 0.243727 2.19506
upperneck 13.1611 0.324484 -3.51927
head 7.56019 -0.0847039 -1.48483
rclavicle 0 3.97569e-016
rhumerus -172.454 -173.342 -250.94
rradius 73.2471
rwrist -373.335
rhand -45.7496 87.4433
rfingers 7.12502
rthumb -18.5049 -301.697
lclavicle 0 3.97569e-016
lhumerus -64.0429 57.6684 -44.8293
lradius 17.4531
lwrist -25.0515
lhand -12.4264 54.7652
lfingers 7.12502
lthumb 13.646 84.2979
rfemur -53.7466 -1.33788 13.957
rtibia 86.6384
rfoot -32.6552 -4.35879
rtoes 27.6704
lfemur -105.754 -2.77694 -31.2835
ltibia 96.4619
lfoot -14.8169 -7.60331
ltoes 36.6869
400
root 32.4169 13.7291 0.330091 49.7499 78.7008 25.3983
lowerback 50.5764 0.600423 1.707
upperback 10.3487 3.78113 3.82983
thorax -9.26435 2.17126 1.62349
lowerneck -21.3956 0.169053 2.18382
upperneck 13.0605 0.294335 -3.88499
head 7.51766 -0.134754 -1.60741
rclavicle -1.27222e-014 6.36111e-015
rhumerus -173.088 -173.59 -251.021
rradius 73.4489
rwrist -371.902
rhand -45.6426 87.9096
rfingers 7.12502
rthumb -18.4019 -301.24
lclavicle -1.27222e-014 6.36111e-015
lhumerus -68.7321 60.8792 -51.762
lradius 17.682
lwrist -25.3621
lhand -12.8771 55.7131
lfingers 7.12502
lthumb 13.2117 85.2744
rfemur -53.6011 -1.13855 13.4089
rtibia 87.0805
rfoot -32.0299 -4.19612
rtoes 29.3597
lfemur -105.771 -2.84883 -31.229
ltibia 96.7853
lfoot -14.9472 -7.43509
ltoes 37.8085
401
root 32.5081 13.7249 0.367042 51.6025 78.0985 27.1343
lowerback 50.8573 0.852004 0.367995
upperback 10.3042 3.38727 3.6172
thorax -9.37952 2.00276 2.18375
lowerneck -21.0937 0.215403 1.16286
upperneck 13.0452 0.685744 -3.99439
head 7.47495 -0.00723585 -1.42815
rclavicle -3.18055e-014 -1.66979e-014
rhumerus -173.743 -174.567 -251.214
rradius 73.6383
rwrist -370.813
rhand -45.4984 88.4479
rfingers 7.12502
rthumb -18.2632 -300.715
lclavicle -3.18055e-014 -1.66979e-014
lhumerus -73.6507 62.7468 -58.3608
lradius 18.056
lwrist -24.3699
lhand -13.4414 57.031
lfingers 7.12502
lthumb 12.6677 86.6268
rfemur -53.4409 -1.05257 12.7319
rtibia 87.3087
rfoot -31.2796 -4.46076
rtoes 30.2377
lfemur -105.819 -3.10607 -31.4747
ltibia 97.2944
lfoot -15.6603 -6.68231
ltoes 36.7251
402
root 32.5847 13.7539 0.406842 54.4133 77.524 29.7028
lowerback 51.0043 1.02259 -0.765922
upperback 10.2202 2.96479 3.24514
thorax -9.48151 1.82995 2.48888
lowerneck -20.7269 0.115789 -0.0786446
upperneck 12.7922 0.802589 -3.42986
head 7.32734 0.0474833 -1.02268
rclavicle 3.18055e-015 2.46493e-014
rhumerus -174.469 -175.092 -251.413
rradius 73.5787
rwrist -370.462
rhand -45.306 88.7941
rfingers 7.12502
rthumb -18.078 -300.386
lclavicle 3.18055e-015 2.46493e-014
lhumerus -79.2004 65.1531 -66.0013
lradius 18.2589
lwrist -23.7689
lhand -14.1955 58.3148
lfingers 7.12502
lthumb 11.9406 87.9543
rfemur -53.4652 -1.08503 11.9578
rtibia 87.3153
rfoot -30.4621 -4.21711
rtoes 31.7063
lfemur -105.561 -3.46424 -31.899
ltibia 97.5222
lfoot -16.5453 -6.14035
ltoes 36.1744
403
root 32.66 13.7726 0.445754 56.7354 77.3292 31.7475
lowerback 50.9353 0.983433 -1.45065
upperback 10.2705 2.54384 2.94431
thorax -9.38777 1.66013 2.66569
lowerneck -21.0334 0.146908 -0.621418
upperneck 13.4234 1.16805 -4.13323
head 7.6006 0.114965 -1.12752
rclavicle 1.90833e-014 6.36111e-015
rhumerus -175.114 -175.523 -251.583
rradius 73.5116
rwrist -370.669
rhand -45.3935 88.5965
rfingers 7.12502
rthumb -18.1623 -300.576
lclavicle 1.90833e-014 6.36111e-015
lhumerus -84.7362 67.4159 -73.3322
lradius 18.4782
lwrist -22.6944
lhand -15.3097 59.6095
lfingers 7.12502
lthumb 10.866 89.3084
rfemur -53.5349 -1.18839 11.5538
rtibia 87.3534
rfoot -29.6927 -3.31943
rtoes 34.3138
lfemur -105.327 -3.90542 -31.9651
ltibia 97.6174
lfoot -17.0757 -5.90921
ltoes 36.8332
404
root 32.7406 13.786 0.484372 56.877 77.7584 31.8464
lowerback 51.0982 0.731917 -1.39674
upperback 10.3436 2.27085 2.73952
thorax -9.29728 1.55344 2.53657
lowerneck -20.5906 0.259004 -1.15785
upperneck 13.0186 1.56464 -4.72184
head 7.40647 0.235125 -1.18295
rclavicle 1.74931e-014 4.77083e-015
rhumerus -175.951 -175.738 -251.828
rradius 73.3931
rwrist -370.95
rhand -45.6672 87.6177
rfingers 7.12502
rthumb -18.4255 -301.53
lclavicle 1.74931e-014 4.77083e-015
lhumerus -87.1233 69.4145 -76.9852
lradius 18.8475
lwrist -20.3569
lhand -16.9547 60.5382
lfingers 7.12502
lthumb 9.2791 -90.314
rfemur -53.0733 -1.07182 11.988
rtibia 87.3152
rfoot -29.3786 -3.07419
rtoes 36.1855
lfemur -105.002 -4.13552 -31.3433
ltibia 97.7593
lfoot -17.4028 -5.85712
ltoes 37.0089
405
root 32.8129 13.807 0.518726 57.8822 77.5942 32.6901
lowerback 51.282 0.668311 -1.7769
upperback 10.344 1.96214 2.37147
thorax -9.28754 1.43489 2.4455
lowerneck -20.0556 0.365612 -1.8059
upperneck 12.6083 1.97988 -5.35911
head 7.19791 0.362687 -1.23424
rclavicle 1.74931e-014 -4.13472e-014
rhumerus -176.765 -175.823 -252.118
rradius 72.7509
rwrist -371.622
rhand -45.4755 86.4672
rfingers 7.12502
rthumb -18.2411 -302.697
lclavicle 1.74931e-014 -4.13472e-014
lhumerus -84.1926 71.1654 -74.8444
lradius 19.3368
lwrist -16.5197
lhand -18.6478 60.8635
lfingers 7.12502
lthumb 7.64507 -90.7053
rfemur -52.8969 -0.822436 11.7567
rtibia 87.2384
rfoot -25.4897 -2.97626
rtoes 37.985
lfemur -104.742 -4.24885 -31.3396
ltibia 97.836
lfoot -17.7843 -5.82049
ltoes 36.7309
406
root 32.8884 13.83 0.552017 59.217 77.5735 33.7457
lowerback 50.915 0.681119 -2.18545
upperback 10.5953 1.78556 2.2711
thorax -8.94619 1.36458 2.60908
lowerneck -20.0319 0.250868 -3.47464
upperneck 12.9426 2.26126 -5.02049
head 7.29338 0.44045 -0.821598
rclavicle 3.18055e-015 -2.38542e-014
rhumerus -177.575 -175.933 -252.114
rradius 71.8775
rwrist -373.069
rhand -45.0805 86.0429
rfingers 7.12502
rthumb -17.8611 -303.157
lclavicle 3.18055e-015 -2.38542e-014
lhumerus -76.2481 72.4778 -67.0381
lradius 19.9789
lwrist -11.7476
lhand -19.5258 61.7136
lfingers 7.12502
lthumb 6.79761 -91.5845
rfemur -52.8594 -0.568401 11.595
rtibia 87.092
rfoot -26.4262 -2.5759
rtoes 39.7306
lfemur -104.639 -4.44014 -31.309
ltibia 97.961
lfoot -18.1523 -5.91692
ltoes 36.5927
407
root 32.9644 13.8483 0.595214 60.5678 77.7004 34.6184
lowerback 50.5754 0.389365 -2.31695
upperback 10.6507 1.32247 1.82173
thorax -8.79626 1.17635 2.38542
lowerneck -20.0729 0.371447 -4.83183
upperneck 13.3 2.7436 -4.52399
head 7.40153 0.637347 -0.383506
rclavicle 7.95139e-015 -2.00773e-014
rhumerus -178.177 -176.169 -252.678
rradius 70.7046
rwrist -374.512
rhand -44.9855 85.2969
rfingers 7.12502
rthumb -17.7697 -303.911
lclavicle 7.95139e-015 -2.00773e-014
lhumerus -62.0961 72.1158 -53.3399
lradius 20.975
lwrist -6.14404
lhand -20.1931 62.8733
lfingers 7.12502
lthumb 6.15342 -92.7639
rfemur -52.907 -0.261907 11.6179
rtibia 86.8488
rfoot -25.7233 -2.52804
rtoes 41.2825
lfemur -104.836 -4.59894 -31.2123
ltibia 98.1429
lfoot -18.6377 -5.93171
ltoes 36.0301
408
root 33.0176 13.8687 0.653885 61.433 77.7733 34.9782
lowerback 50.2858 0.291053 -2.64847
upperback 10.6811 0.981921 1.36285
thorax -8.68977 1.04069 2.19103
lowerneck -19.8934 0.512236 -5.96323
upperneck 13.3961 3.15709 -4.04842
head 7.38046 0.821511 0.00228021
rclavicle -1.27222e-014 -9.14409e-015
rhumerus -178.684 -176.149 -253.331
rradius 69.3158
rwrist -375.437
rhand -45.1243 84.2584
rfingers 7.12502
rthumb -17.9032 -304.938
lclavicle -1.27222e-014 -9.14409e-015
lhumerus -48.0646 70.3616 -39.7931
lradius 22.2517
lwrist -0.891939
lhand -21.0472 63.2364
lfingers 7.12502
lthumb 5.32881 -93.1494
rfemur -53.0703 0.295582 11.7339
rtibia 86.5319
rfoot -24.7487 -2.58372
rtoes 42.8681
lfemur -105.15 -4.47363 -31.1138
ltibia 98.2564
lfoot -18.9303 -6.08638
ltoes 35.6292
409
root 33.0713 13.9038 0.720999 63.1041 77.9556 36.5233
lowerback 50.461 0.753115 -3.46699
upperback 10.6788 1.17814 1.68764
thorax -8.72954 1.11682 2.83865
lowerneck -19.0709 0.378041 -7.16803
upperneck 12.7593 3.26244 -4.35043
head 7.0284 0.830597 0.102
rclavicle -5.56597e-015 -2.54444e-014
rhumerus -179.37 -175.851 -252.887
rradius 67.6962
rwrist -376.193
rhand -45.431 83.6072
rfingers 7.12502
rthumb -18.1983 -305.561
lclavicle -5.56597e-015 -2.54444e-014
lhumerus -36.028 67.6844 -27.3326
lradius 23.7884
lwrist 3.95661
lhand -21.4852 62.8941
lfingers 7.12502
lthumb 4.90582 -92.8173
rfemur -52.5491 0.686087 11.8618
rtibia 86.0309
rfoot -23.9205 -2.93195
rtoes 43.8997
lfemur -104.874 -4.45301 -31.1131
ltibia 98.2313
lfoot -19.0105 -6.39952
ltoes 35.3345
410
root 33.131 13.9449 0.788929 65.9664 78.2746 39.372
lowerback 50.8166 1.18927 -4.21883
upperback 10.6096 1.40255 2.21824
thorax -8.88239 1.20184 3.66347
lowerneck -18.5881 0.0626198 -8.82307
upperneck 12.8963 3.20698 -4.0898
head 6.97372 0.755307 0.440021
rclavicle 1.74931e-014 4.25399e-014
rhumerus -180.087 -175.452 -252.199
rradius 65.9639
rwrist -376.923
rhand -45.6789 82.5422
rfingers 7.12502
rthumb -18.4369 -306.604
lclavicle 1.74931e-014 4.25399e-014
lhumerus -26.6158 63.6227 -17.2396
lradius 25.8842
lwrist 8.94958
lhand -21.3015 61.7131
lfingers 7.12502
lthumb 5.08326 -91.6321
rfemur -51.6635 0.879364 11.9857
rtibia 85.4019
rfoot -23.3555 -3.4189
rtoes 44.8893
lfemur -104.347 -4.65759 -31.1988
ltibia 98.1076
lfoot -19.1935 -6.6635
ltoes 35.0864
411
root 33.1896 13.9848 0.84959 68.3495 78.5012 41.4005
lowerback 50.6191 1.03301 -4.46125
upperback 10.6475 1.0784 1.91696
thorax -8.7736 1.07202 3.59013
lowerneck -18.4326 -0.0382339 -10.2991
upperneck 13.0158 3.25774 -3.03348
head 6.94471 0.798441 1.01985
rclavicle 3.26007e-014 2.70347e-014
rhumerus -180.422 -175.007 -252.813
rradius 63.9911
rwrist -377.527
rhand -45.6988 81.386
rfingers 7.12502
rthumb -18.4559 -307.758
lclavicle 3.26007e-014 2.70347e-014
lhumerus -20.6563 58.8831 -11.6372
lradius 28.6742
lwrist 13.6041
lhand -20.6025 60.2714
lfingers 7.12502
lthumb 5.75814 -90.1732
rfemur -51.3574 1.25804 12.0533
rtibia 84.8089
rfoot -22.5409 -3.45022
rtoes 46.4757
lfemur -104.25 -4.79859 -31.2255
ltibia 97.955
lfoot -19.4243 -6.85102
ltoes 35.5291
412
root 33.2521 14.0222 0.904073 70.4872 78.9427 42.9233
lowerback 49.9655 0.385482 -4.14727
upperback 10.8035 0.400045 1.10104
thorax -8.44735 0.801848 2.8561
lowerneck -18.8042 -0.196219 -11.0941
upperneck 13.0148 3.10545 -1.96005
head 6.97626 0.775739 1.47916
rclavicle 7.95139e-016 -5.96354e-016
rhumerus -180.585 -174.554 -254.26
rradius 61.7145
rwrist -378.104
rhand -45.5158 80.5576
rfingers 7.12502
rthumb -18.2799 -308.604
lclavicle 7.95139e-016 -5.96354e-016
lhumerus -16.954 54.0003 -9.06612
lradius 32.0539
lwrist 17.5144
lhand -19.9175 59.4331
lfingers 7.12502
lthumb 6.41946 89.3158
rfemur -51.5254 1.59549 12.377
rtibia 84.2556
rfoot -21.7507 -3.19555
rtoes 48.1486
lfemur -104.499 -5.01557 -30.9204
ltibia 97.8132
lfoot -19.589 -7.13992
ltoes 36.1169
